<?xml version="1.0" encoding="iso-8859-1"?>
<!-- Generator: Adobe Illustrator 19.0.0, SVG Export Plug-In . SVG Version: 6.00 Build 0)  -->
<svg xmlns="http://www.w3.org/2000/svg" xmlns:xlink="http://www.w3.org/1999/xlink" version="1.1" id="Capa_1" x="0px" y="0px" viewBox="0 0 512.014 512.014" style="enable-background:new 0 0 512.014 512.014;" xml:space="preserve" width="512px" height="512px">
<g>
	<g>
		<path d="M69.503,310.856l-53.333-32c-5.056-3.072-11.605-1.387-14.635,3.669c-3.029,5.056-1.408,11.605,3.648,14.635l53.333,32    c1.728,1.045,3.627,1.515,5.483,1.515c3.605,0,7.147-1.856,9.152-5.184C76.18,320.434,74.559,313.885,69.503,310.856z" fill="#74ccd1"/>
	</g>
</g>
<g>
	<g>
		<path d="M244.522,96.498c-41.045-12.523-89.408-14.464-143.659-5.867c-15.317,2.496-30.976-1.813-42.773-11.648L17.492,45.149    c-4.544-3.797-11.243-3.136-15.019,1.365c-3.776,4.523-3.157,11.243,1.365,15.019l40.597,33.835    c16.533,13.76,38.293,19.712,59.776,16.341c51.029-8.149,96.149-6.379,134.08,5.227c1.045,0.299,2.091,0.448,3.115,0.448    c4.587,0,8.811-2.965,10.197-7.573C253.332,104.178,250.154,98.226,244.522,96.498z" fill="#74ccd1"/>
	</g>
</g>
<g>
	<g>
		<path d="M455.615,313.906L295.039,173.32c-4.459-3.883-11.2-3.456-15.061,1.003c-3.904,4.437-3.456,11.157,0.981,15.04    l160.64,140.629c4.075,3.52,6.4,8.64,6.4,14.123c0,10.219-8.32,18.56-18.56,18.56h-2.859c-4.331,0-8.555-1.515-11.861-4.267    l-1.728-1.429c-0.192-0.149-0.384-0.32-0.597-0.491l-117.547-97.963c-4.544-3.797-11.243-3.157-15.04,1.344    c-3.776,4.523-3.157,11.243,1.365,15.019l117.952,98.304c3.968,3.477,6.208,8.469,6.208,13.803    c0,10.112-8.235,18.347-18.347,18.347h-3.157c-4.267,0-8.448-1.493-11.712-4.224l-22.421-18.688    c-0.149-0.128-0.299-0.256-0.427-0.363L252.18,301.17c-4.565-3.797-11.264-3.136-15.04,1.344    c-3.776,4.523-3.157,11.243,1.365,15.019l97.365,81.152c3.477,3.008,5.461,7.381,5.461,12.011c0,8.811-7.168,15.979-15.979,15.979    c-7.915,0-15.68-2.731-21.632-7.488l-51.477-43.797c-4.459-3.797-11.221-3.264-15.04,1.216c-3.819,4.501-3.264,11.221,1.216,15.04    l51.733,44.011c9.941,7.957,22.464,12.352,35.2,12.352c17.429,0,32.107-12.011,36.181-28.181    c6.549,4.437,14.315,6.848,22.293,6.848h3.157c21.888,0,39.68-17.813,39.68-39.744c0-0.981-0.021-1.963-0.107-2.923    c0.021,0,0.021,0,0.021,0h2.859c21.995,0,39.893-17.899,39.893-39.979C469.332,332.445,464.319,321.458,455.615,313.906z" fill="#74ccd1"/>
	</g>
</g>
<g>
	<g>
		<path d="M294.036,411.037c-4.16-4.16-10.923-4.16-15.083,0s-4.16,10.923,0,15.083c2.773,2.773,0.704,13.333-4.757,18.795    c-4.032,4.032-10.773,4.288-15.339-0.256l-27.584-25.749c-4.331-4.032-11.051-3.819-15.083,0.512    c-4.011,4.288-3.797,11.051,0.512,15.061l27.328,25.493c6.059,6.037,14.101,9.365,22.635,9.365s16.576-3.328,22.613-9.344    C301.951,447.304,306.687,423.688,294.036,411.037z" fill="#74ccd1"/>
	</g>
</g>
<g>
	<g>
		<path d="M510.463,282.525c-3.029-5.035-9.579-6.763-14.635-3.669l-53.333,32c-5.035,3.029-6.677,9.6-3.648,14.635    c2.005,3.328,5.525,5.184,9.152,5.184c1.877,0,3.776-0.469,5.483-1.515l53.333-32C511.85,294.13,513.492,287.56,510.463,282.525z" fill="#74ccd1"/>
	</g>
</g>
<g>
	<g>
		<path d="M509.439,46.408c-3.84-4.459-10.56-4.971-15.04-1.173l-72.32,61.973c-36.352,4.864-62.528-3.797-85.717-11.435    c-16.277-5.376-31.659-10.432-48.363-10.432c-28.8,0-49.771,13.781-68.288,25.984c-4.032,2.645-7.979,5.227-11.861,7.552    c-0.747,0.427-1.429,0.981-2.048,1.6l-56.512,56.491c-14.123,14.123-17.6,35.605-8.661,53.461    c7.893,15.765,23.765,25.579,41.408,25.579h8.533c10.603,0,20.971-3.669,29.163-10.325c4.139-3.349,8.875-7.317,13.952-11.563    c18.112-15.168,45.504-38.059,58.069-42.795c5.504-2.069,8.299-8.213,6.229-13.739c-2.069-5.504-8.235-8.363-13.739-6.229    c-14.805,5.547-36.907,23.509-64.256,46.379c-5.013,4.181-9.685,8.085-13.717,11.371c-4.48,3.648-9.92,5.568-15.723,5.568h-8.533    c-9.515,0-18.069-5.291-22.315-13.781c-4.8-9.643-2.923-21.248,4.672-28.843l55.595-55.573c3.755-2.304,7.552-4.8,11.456-7.36    c16.789-11.029,34.155-22.443,56.576-22.443c13.291,0,26.453,4.331,41.707,9.344c24.811,8.213,55.701,18.453,98.581,11.861    c1.963-0.277,3.819-1.131,5.333-2.432l74.667-64C512.767,57.608,513.279,50.866,509.439,46.408z" fill="#74ccd1"/>
	</g>
</g>
<g>
	<g>
		<path d="M96.49,288.008c-10.581,0-20.373,5.248-26.219,14.037l-11.648,17.451c-3.456,5.184-5.291,11.221-5.291,17.472v4.843    c0,17.387,14.144,31.531,31.509,31.531c10.581,0,20.373-5.248,26.219-14.037l11.648-17.451c3.456-5.184,5.291-11.221,5.291-17.472    v-4.843C127.999,302.152,113.855,288.008,96.49,288.008z M106.666,324.36c0,2.027-0.597,3.989-1.728,5.675L93.29,347.506    c-1.877,2.837-5.035,4.523-8.448,4.523c-5.611,0-10.176-4.565-10.176-10.197v-4.843c0-2.027,0.597-3.989,1.707-5.653    l11.669-17.472c1.877-2.837,5.035-4.523,8.448-4.523c5.611,0,10.176,4.565,10.176,10.176V324.36z" fill="#74ccd1"/>
	</g>
</g>
<g>
	<g>
		<path d="M138.431,309.32c-9.877,0-19.307,4.715-25.216,12.608l-21.589,28.757c-4.053,5.419-6.293,12.16-6.293,18.944v4.181    c0,17.387,14.144,31.531,32.235,31.531c9.877,0,19.307-4.715,25.216-12.587l21.589-28.757c4.053-5.419,6.293-12.16,6.293-18.944    v-4.181C170.666,323.485,156.522,309.341,138.431,309.32z M149.332,345.053c0,2.197-0.725,4.373-2.027,6.123l-21.589,28.779    c-1.92,2.539-4.949,4.053-8.875,4.053c-5.611,0-10.176-4.565-10.176-10.197v-4.181c0-2.197,0.725-4.373,2.027-6.123l21.589-28.779    c1.92-2.539,4.949-4.053,8.875-4.053c5.611,0,10.176,4.565,10.176,10.197V345.053z" fill="#74ccd1"/>
	</g>
</g>
<g>
	<g>
		<path d="M181.098,330.653c-9.877,0-19.307,4.715-25.216,12.608l-21.589,28.757c-4.053,5.419-6.293,12.16-6.293,18.944v4.181    c0,17.387,14.144,31.531,32.235,31.531c9.877,0,19.307-4.715,25.216-12.587l21.589-28.757c4.053-5.419,6.293-12.16,6.293-18.944    v-4.181C213.332,344.818,199.188,330.674,181.098,330.653z M191.999,366.386c0,2.197-0.725,4.373-2.027,6.123l-21.589,28.779    c-1.92,2.539-4.949,4.053-8.875,4.053c-5.611,0-10.176-4.565-10.176-10.197v-4.181c0-2.197,0.725-4.373,2.027-6.123l21.589-28.779    c1.92-2.539,4.949-4.053,8.875-4.053c5.611,0,10.176,4.565,10.176,10.197V366.386z" fill="#74ccd1"/>
	</g>
</g>
<g>
	<g>
		<path d="M223.764,351.986c-9.877,0-19.307,4.715-25.216,12.608l-21.589,28.757c-4.053,5.419-6.293,12.16-6.293,18.944v4.181    c0,17.387,14.144,31.531,32.235,31.531c9.877,0,19.307-4.715,25.216-12.608l21.589-28.757c4.053-5.419,6.293-12.16,6.293-18.944    v-4.181C255.999,366.13,241.876,351.986,223.764,351.986z M234.666,387.72c0,2.197-0.725,4.373-2.027,6.123l-21.589,28.779    c-1.92,2.539-4.949,4.053-8.875,4.053c-5.611,0-10.176-4.565-10.176-10.197v-4.181c0-2.197,0.725-4.373,2.027-6.123l21.589-28.779    c1.92-2.539,4.949-4.053,8.875-4.053c5.611,0,10.176,4.565,10.176,10.197V387.72z" fill="#74ccd1"/>
	</g>
</g>
<g>
</g>
<g>
</g>
<g>
</g>
<g>
</g>
<g>
</g>
<g>
</g>
<g>
</g>
<g>
</g>
<g>
</g>
<g>
</g>
<g>
</g>
<g>
</g>
<g>
</g>
<g>
</g>
<g>
</g>
</svg>
